# xmcd
#
# Track frame offsets:
#	150
#	10661
#	28162
#	46260
#	60926
#	76691
#	90024
#	103198
#	117939
#	131524
#	145049
#	157164
#	172775
#	186286
#	199789
#	212739
#	224667
#
# Disc length: 3175 seconds
#
# Revision: 1
# Processed by: cddbd v1.5.1PL2 Copyright (c) Steve Scherf et al.
# Submitted via: audiograbber 1.83.01
#
DISCID=dd0c6511
DTITLE=Various Artist - ESP452-01
DYEAR=1900
DGENRE=
TTITLE0=Dottie West - Country Sunshine
TTITLE1=Marty Robbins - My Woman, My Woman, My Wife
TTITLE2=C.W. McCall - Convoy
TTITLE3=Barbara Fairchild - Teddy Bear Song
TTITLE4=Don Williams - Amanda
TTITLE5=Loretta Lynn - One's On The Way
TTITLE6=Charlie Rich - A Very Special Love Song
TTITLE7=Conway Twitty - You've Never Been This Far Before
TTITLE8=Faron Young - It's Four In The Morning
TTITLE9=Sonny James - My Love
TTITLE10=Freddie Hart - Easy Loving
TTITLE11=Donna Fargo - Funny Face
TTITLE12=Sonny James - Don't Keep Me Hangin' On
TTITLE13=Merle Haggard - Fightin' Side Of Me
TTITLE14=Dolly Parton - I Will Always Love You
TTITLE15=Charlie Rich - She Called Me Baby
TTITLE16=Marie Osmond - Paper Roses
EXTD=
EXTT0=
EXTT1=
EXTT2=
EXTT3=
EXTT4=
EXTT5=
EXTT6=
EXTT7=
EXTT8=
EXTT9=
EXTT10=
EXTT11=
EXTT12=
EXTT13=
EXTT14=
EXTT15=
EXTT16=
PLAYORDER=
